<?xml version="1.0" encoding="UTF-8" standalone="no"?>
<!-- Created with Inkscape (http://www.inkscape.org/) -->

<svg
   xmlns:dc="http://purl.org/dc/elements/1.1/"
   xmlns:cc="http://creativecommons.org/ns#"
   xmlns:rdf="http://www.w3.org/1999/02/22-rdf-syntax-ns#"
   xmlns:svg="http://www.w3.org/2000/svg"
   xmlns="http://www.w3.org/2000/svg"
   xmlns:xlink="http://www.w3.org/1999/xlink"
   xmlns:sodipodi="http://sodipodi.sourceforge.net/DTD/sodipodi-0.dtd"
   xmlns:inkscape="http://www.inkscape.org/namespaces/inkscape"
   width="37.464054mm"
   height="71.466545mm"
   viewBox="0 0 132.74665 253.22791"
   id="svg9607"
   version="1.1"
   inkscape:version="0.91 r13725"
   sodipodi:docname="cyberscooty-small_plant.svg">
  <defs
     id="defs9609">
    <radialGradient
       inkscape:collect="always"
       xlink:href="#linearGradient6632"
       id="radialGradient6638"
       cx="-1258.2814"
       cy="562.76044"
       fx="-1258.2814"
       fy="562.76044"
       r="226.71718"
       gradientTransform="matrix(-0.54933034,0.53426641,-0.52509277,-0.53989806,-1657.033,1595.6433)"
       gradientUnits="userSpaceOnUse" />
    <linearGradient
       inkscape:collect="always"
       id="linearGradient6632">
      <stop
         style="stop-color:#2d1d19;stop-opacity:1;"
         offset="0"
         id="stop6634" />
      <stop
         id="stop6640"
         offset="0.56127411"
         style="stop-color:#2e1e1a;stop-opacity:1;" />
      <stop
         style="stop-color:#523630;stop-opacity:1"
         offset="1"
         id="stop6636" />
    </linearGradient>
    <linearGradient
       inkscape:collect="always"
       xlink:href="#linearGradient6592"
       id="linearGradient6606"
       x1="-1286.1071"
       y1="427.67267"
       x2="-1393.5129"
       y2="315.88693"
       gradientUnits="userSpaceOnUse" />
    <linearGradient
       inkscape:collect="always"
       id="linearGradient6592">
      <stop
         style="stop-color:#bbe22f;stop-opacity:1"
         offset="0"
         id="stop6594" />
      <stop
         style="stop-color:#d8f27c;stop-opacity:1"
         offset="1"
         id="stop6596" />
    </linearGradient>
    <linearGradient
       inkscape:collect="always"
       xlink:href="#linearGradient6592"
       id="linearGradient6588"
       x1="-1246.0714"
       y1="415.39792"
       x2="-1165.2111"
       y2="238.68434"
       gradientUnits="userSpaceOnUse" />
    <linearGradient
       inkscape:collect="always"
       xlink:href="#linearGradient6592"
       id="linearGradient6598"
       x1="-1220.2643"
       y1="413.44073"
       x2="-1139.5168"
       y2="251.05872"
       gradientUnits="userSpaceOnUse" />
    <linearGradient
       inkscape:collect="always"
       xlink:href="#linearGradient6608"
       id="linearGradient6614"
       x1="-1257.8265"
       y1="489.50238"
       x2="-1260.0718"
       y2="620.8222"
       gradientUnits="userSpaceOnUse" />
    <linearGradient
       inkscape:collect="always"
       id="linearGradient6608">
      <stop
         style="stop-color:#9fc21f;stop-opacity:1;"
         offset="0"
         id="stop6610" />
      <stop
         style="stop-color:#809d19;stop-opacity:1"
         offset="1"
         id="stop6612" />
    </linearGradient>
    <linearGradient
       inkscape:collect="always"
       xlink:href="#linearGradient6624"
       id="linearGradient6622"
       x1="-1260.3318"
       y1="573.29108"
       x2="-1172.4745"
       y2="495.96957"
       gradientUnits="userSpaceOnUse" />
    <linearGradient
       id="linearGradient6624"
       inkscape:collect="always">
      <stop
         id="stop6626"
         offset="0"
         style="stop-color:#8cab1b;stop-opacity:1" />
      <stop
         style="stop-color:#bce231;stop-opacity:1;"
         offset="0.31078395"
         id="stop6630" />
      <stop
         id="stop6628"
         offset="1"
         style="stop-color:#d8f27c;stop-opacity:1" />
    </linearGradient>
  </defs>
  <sodipodi:namedview
     id="base"
     pagecolor="#ffffff"
     bordercolor="#666666"
     borderopacity="1.0"
     inkscape:pageopacity="0.0"
     inkscape:pageshadow="2"
     inkscape:zoom="0.35"
     inkscape:cx="-164.71144"
     inkscape:cy="-261.95747"
     inkscape:document-units="px"
     inkscape:current-layer="layer1"
     showgrid="false"
     fit-margin-top="0"
     fit-margin-left="0"
     fit-margin-right="0"
     fit-margin-bottom="0"
     inkscape:window-width="1536"
     inkscape:window-height="801"
     inkscape:window-x="-8"
     inkscape:window-y="-8"
     inkscape:window-maximized="1" />
  <metadata
     id="metadata9612">
    <rdf:RDF>
      <cc:Work
         rdf:about="">
        <dc:format>image/svg+xml</dc:format>
        <dc:type
           rdf:resource="http://purl.org/dc/dcmitype/StillImage" />
        <dc:title></dc:title>
      </cc:Work>
    </rdf:RDF>
  </metadata>
  <g
     inkscape:label="Calque 1"
     inkscape:groupmode="layer"
     id="layer1"
     transform="translate(-18.282868,-17.176806)">
    <g
       id="g6730"
       transform="matrix(0.44826108,0,0,0.44826108,656.29506,-75.099701)">
      <path
         inkscape:connector-curvature="0"
         id="path6578"
         d="m -1267.5048,607.7753 c 0,0 -0.4378,2.62701 -2.4081,2.62701 -1.9703,0 -3.5027,-1.53242 -4.3784,-1.75134 -0.8756,-0.21892 -1.9702,0 -3.5026,0 -1.5325,0 -4.1595,0.21892 -5.0351,0 -0.8757,-0.21892 -3.0648,-2.62701 -3.0648,-2.62701 0,0 -4.5973,-0.87566 -5.0351,0 -0.4379,0.87567 -3.0649,3.94052 -3.0649,3.94052 0,0 0.4379,0.87567 -1.3135,0.87567 -1.7513,0 -4.3783,-1.3135 -5.254,-0.43784 -0.8757,0.87567 -1.3136,2.84593 -3.0649,3.06485 -1.7513,0.21891 -3.9405,0 -3.9405,0 0,0 1.0946,-1.53242 -0.2189,-1.53242 -1.3135,0 -2.8459,-1.97026 -2.4081,0.87567 0.4378,2.84592 1.0946,3.94051 0.4378,5.03509 -0.6567,1.09459 1.7514,0.43784 -2.4081,1.31351 -4.1594,0.87567 -3.5027,0.87567 -7.4431,1.31351 -3.9406,0.43783 -4.8162,1.3135 -5.9108,3.94051 -1.0946,2.627 -3.0649,3.50268 -4.1594,5.0351 -1.0946,1.53242 -0.6568,2.40809 -2.4082,3.50268 -1.7513,1.09458 -5.0351,-0.65676 -6.1296,1.09458 -1.0946,1.75134 -1.5325,4.37835 -2.1892,5.69186 -0.6567,1.3135 0,1.75134 -3.5027,2.18917 -3.5027,0.43783 -3.7216,-0.43783 -4.3784,0.43783 -0.6567,0.87567 -1.7513,3.50269 -2.627,4.15944 -0.8756,0.65675 0.219,2.18917 -2.8459,0.65675 -3.0648,-1.53242 -9.6323,-3.50268 -10.7269,-2.62701 -1.0946,0.87567 -1.0946,0.43784 -2.1892,2.62701 -1.0946,2.18917 -1.5324,1.3135 -2.4081,4.59727 -0.8757,3.28376 -1.0945,4.37834 -1.7513,6.3486 -0.6568,1.97026 0.8756,2.84593 -2.4081,3.7216 -3.2838,0.87567 -4.8162,0.21891 -5.6919,-0.43784 -0.8756,-0.65675 8.1,-1.97025 -2.408,-1.75134 -10.5081,0.21892 -9.6324,2.84593 -9.4135,5.0351 0.2189,2.18918 0.6568,1.75134 -1.0946,3.7216 -1.7513,1.97026 -4.5973,3.7216 -4.5973,3.7216 0,0 -2.1891,0.21891 -2.1891,1.53242 0,1.3135 -0.8757,2.18917 -1.9703,3.50268 -1.0946,1.3135 -2.1892,-0.21892 -1.5324,1.53242 0.6567,1.75134 0.6567,3.06484 0.4378,3.94051 -0.2189,0.87567 -0.8757,1.75134 -1.3135,3.28376 -0.4379,1.53243 -1.0946,2.84593 -1.5324,5.47294 -0.4379,2.62701 0,3.94051 0.8757,5.0351 0.8756,1.09459 0.4378,0 -0.2189,3.28376 -0.6568,3.28376 -1.9703,3.50268 -0.6568,5.25402 1.3135,1.75134 1.7513,2.84593 2.8459,4.59727 1.0946,1.75133 -0.4378,0.21891 1.3135,2.40809 1.7514,2.18917 1.5324,2.40809 2.1892,3.50268 0.6567,1.09458 -1.7514,0.43783 1.7513,3.06484 3.5027,2.62701 5.254,2.40809 6.5676,3.28376 1.3135,0.87567 1.3135,1.97026 1.5324,3.7216 0.2189,1.75134 0.2189,1.97025 -1.7513,2.40809 -1.9703,0.43784 -10.2892,-3.7216 -6.1297,0 4.1594,3.7216 5.254,1.97026 7.881,2.40809 2.627,0.43784 4.3784,-2.18917 3.5027,0.21892 -0.8757,2.40809 -2.4081,1.53242 -3.5027,3.50268 -1.0946,1.97026 -2.846,0.87567 -2.627,2.40809 0.2189,1.53242 3.7216,5.0351 3.7216,5.0351 l -1.7514,3.7216 c 0,0 -4.8162,1.09458 -3.7216,1.75134 1.0946,0.65675 8.5378,4.15943 8.5378,4.15943 l 2.1892,3.94051 c 0,0 -1.0946,1.53243 0.4378,2.18917 1.5324,0.65676 3.5027,-0.21891 3.5027,-0.21891 0,0 1.7514,-1.75134 3.2838,-1.75134 1.5324,0 1.0946,-1.09459 2.408,0.21892 1.3136,1.3135 2.4081,1.09459 3.9406,1.97026 1.5324,0.87566 4.8161,1.75133 7.6621,2.627 2.8459,0.87567 4.1594,-0.65675 4.5972,2.62701 0.4379,3.28376 -0.4378,3.50268 1.7514,3.7216 2.1892,0.21892 5.254,0.65675 6.5675,-1.09459 1.3135,-1.75134 -5.254,-1.75134 1.7514,-3.06484 7.0053,-1.31351 11.1648,-3.50268 11.1648,-3.50268 0,0 -0.219,-1.09459 1.9702,-1.09459 2.1892,0 7.4432,-4.59726 10.0702,-0.43784 2.627,4.15944 3.2838,4.59727 6.7864,4.81619 3.5027,0.21892 12.2594,6.56752 13.1351,7.66211 0.8757,1.09459 -7.881,1.53242 3.5027,0 11.3836,-1.53242 11.8215,-2.62701 14.4485,-1.53242 2.627,1.09458 7.2243,2.40809 7.2243,2.40809 0,0 3.7216,-0.21892 6.1296,-1.31351 2.4081,-1.09458 9.1946,-3.06484 10.5081,-3.06484 1.3135,0 -0.6567,1.97026 3.0648,-0.43784 3.7216,-2.40809 6.3486,-4.81618 7.6622,-4.81618 1.3135,0 -0.2189,-2.40809 2.1891,0.65675 2.4081,3.06485 4.1594,3.06485 8.9757,4.15943 4.8161,1.09459 7.4431,1.97026 8.3188,0.87568 0.8757,-1.09459 1.5324,-2.62702 1.5324,-2.62702 l 7.8811,-3.06484 c 0,0 5.254,-1.53242 7.0053,-1.97025 1.7514,-0.43784 7.0054,2.84592 7.0054,2.84592 0,0 -2.1892,1.53242 0.2189,2.40809 2.4081,0.87568 6.5675,0 7.6621,-0.21892 1.0946,-0.21891 5.6919,-1.97025 6.5675,-2.18917 0.8757,-0.21892 4.8162,-0.43783 5.6918,-0.87567 0.8757,-0.43783 4.5973,-2.84592 5.692,-3.06484 1.0945,-0.21892 14.0106,-0.21892 14.2295,-1.09459 0.219,-0.87567 -0.4377,-2.40809 -0.4377,-4.37835 0,-1.97025 -3.5027,-3.50267 1.0945,-2.84593 4.5973,0.65676 8.7567,0.87568 9.8513,0.43784 1.0946,-0.43784 2.627,-1.75134 3.0648,-3.7216 0.4379,-1.97025 0.6568,-2.40809 1.0946,-4.37835 0.4379,-1.97025 0.6568,-3.06484 0.4379,-4.37834 -0.2189,-1.31351 0,-4.59727 1.0945,-5.47294 1.0946,-0.87567 4.5973,-1.53242 5.6919,0 1.0946,1.53243 2.4081,3.7216 5.6918,5.47294 3.2838,1.75134 1.3136,5.69185 5.0351,1.53242 3.7217,-4.15943 5.2541,-6.12969 5.6919,-7.00536 0.4378,-0.87567 0,-3.06484 0.4378,-4.15943 0.4379,-1.09458 0.4379,-3.50268 0.4379,-8.31886 0,-4.81618 2.627,-1.53242 -0.2189,-5.69185 -2.846,-4.15944 -6.3487,-4.81619 -5.2541,-10.72696 1.0947,-5.91077 1.9703,-6.56752 0.8757,-7.44319 -1.0946,-0.87567 -5.4729,-0.87567 -5.4729,-1.97026 0,-1.09459 2.8459,-2.18917 5.0351,-3.50268 2.1892,-1.3135 4.3783,0.43784 3.7216,-2.40809 -0.6568,-2.84593 0.4378,-2.84593 -1.5324,-5.0351 -1.9703,-2.18918 -2.846,-0.65675 -5.473,-5.25402 -2.627,-4.59727 -1.9702,-4.59727 -4.1594,-6.78643 -2.1892,-2.18918 -3.7216,-3.50269 -3.7216,-3.50269 l -5.254,-4.37835 c 0,0 -2.1892,-2.627 -3.9406,-4.59726 -1.7513,-1.97026 -3.9404,-3.06485 -4.1594,-4.37835 -0.2189,-1.3135 0.8757,-0.87567 -1.3135,-3.06484 -2.1892,-2.18918 -3.7216,-3.06484 -4.5972,-3.94051 -0.8757,-0.87568 -3.7217,-4.81619 -3.7217,-4.81619 0,0 2.4081,-1.97025 1.3136,-3.06485 -1.0946,-1.09458 1.0945,-1.09458 -2.627,-1.53242 -3.7216,-0.43783 -3.0649,0.43784 -5.254,-0.87567 -2.1893,-1.3135 -3.2838,-0.21891 -3.5027,-1.97025 -0.219,-1.75134 -1.5324,-2.4081 -3.9406,-1.75134 -2.4081,0.65675 -3.2837,1.53242 -3.5026,0.21892 -0.2189,-1.31351 0.8756,-3.06485 0,-3.7216 -0.8757,-0.65675 -2.8459,-0.65675 -4.5973,-0.65675 -1.7513,0 -2.8459,-1.75134 -4.1594,-5.03511 -1.3136,-3.28375 1.9702,-2.84592 -2.1892,-3.94051 -4.1594,-1.09458 -4.1594,-0.21891 -5.9108,-1.53242 -1.7513,-1.31351 -3.0648,-0.21892 -3.9405,-0.43783 -0.8756,-0.21892 -2.8459,-2.62701 -2.8459,-2.62701 0,0 -1.9703,1.09459 -6.1297,-1.31351 -4.1594,-2.40809 -3.0648,-0.87567 -5.6918,-3.50268 -2.627,-2.62701 -5.9108,-4.59726 -8.5378,-7.00535 -2.627,-2.40809 1.5324,-4.37835 -4.1595,-1.97026 -5.6918,2.40809 -3.0648,3.94051 -7.4432,1.53242 -4.3783,-2.40809 -4.5972,-2.62701 -5.6918,-3.06484 -1.0946,-0.43784 -4.1594,-1.53243 -5.254,-0.87567 -1.0946,0.65675 -1.7514,0.21891 -1.9703,1.97026 -0.2189,1.75133 -3.5027,3.28376 -3.5027,3.28376 0,0 -2.627,1.09458 -3.7216,1.97025 -1.0945,0.87567 -6.7864,1.53242 -6.7864,1.53242 z"
         style="opacity:1;fill:url(#radialGradient6638);fill-opacity:1;fill-rule:nonzero;stroke:none;stroke-width:0.66399997;stroke-linecap:round;stroke-linejoin:miter;stroke-miterlimit:4;stroke-dasharray:none;stroke-dashoffset:0;stroke-opacity:1" />
      <path
         sodipodi:nodetypes="cscccc"
         inkscape:connector-curvature="0"
         id="path6507"
         d="m -1423.3049,296.76811 c 57.4011,61.0882 117.0043,122.09213 141.2463,157.90609 7.8433,11.58733 4.0395,14.08312 12.8019,26.95182 l 8.5863,-7.57614 c -6.688,-5.84896 -9.0271,-13.25113 -12.6269,-20.20305 z"
         style="opacity:1;fill:#abd121;fill-opacity:1;fill-rule:nonzero;stroke:none;stroke-width:0.66399997;stroke-linecap:round;stroke-linejoin:miter;stroke-miterlimit:4;stroke-dasharray:none;stroke-dashoffset:0;stroke-opacity:1" />
      <path
         sodipodi:nodetypes="cscsscc"
         inkscape:connector-curvature="0"
         id="path6509"
         d="m -1272.2871,455.86713 c 1.1475,-1.46214 2.6099,-1.94677 3.3089,-5.12232 0.4028,-1.82985 -0.1598,-3.37449 -0.9098,-4.72667 -17.917,-26.15019 -36.3452,-53.69014 -52.4017,-67.42768 -25.0242,-21.41006 -42.3641,-30.64559 -49.9465,-37.0824 -13.9826,-11.8701 -17.066,-11.10324 -50.0586,-43.7298 z"
         style="opacity:1;fill:url(#linearGradient6606);fill-opacity:1;fill-rule:nonzero;stroke:none;stroke-width:0.66399997;stroke-linecap:round;stroke-linejoin:miter;stroke-miterlimit:4;stroke-dasharray:none;stroke-dashoffset:0;stroke-opacity:1" />
      <path
         inkscape:connector-curvature="0"
         id="path6580"
         d="m -1128.3404,205.85438 -0.5051,11.04854 -8.2075,18.87723 -83.2113,177.66058 -27.6821,32.93934 -5.625,20 -5.1786,1.42857 0.9822,-13.48215 3.1583,-6.66685 8.5381,-32.26172 67.7285,-153.98515 35.9866,-28.91562 8.8742,-11.58583 2.9464,-6.71875 1.7634,-5.46875 z"
         style="opacity:1;fill:#abd121;fill-opacity:1;fill-rule:nonzero;stroke:none;stroke-width:0.66399997;stroke-linecap:round;stroke-linejoin:miter;stroke-miterlimit:4;stroke-dasharray:none;stroke-dashoffset:0;stroke-opacity:1" />
      <path
         sodipodi:nodetypes="cssscsscc"
         inkscape:connector-curvature="0"
         id="path6511"
         d="m -1128.3404,205.85438 c -7.4964,20.66554 -16.7808,29.18113 -32.3249,34.59772 -61.1037,21.29266 -75.5981,59.62649 -91.9239,99.75256 -11.3265,27.83894 -15.5124,58.73172 -2.5253,91.92389 2.1288,5.44097 0.1478,21.37162 -1.0102,34.34518 1.688,-7.16745 2.9815,-17.8217 4.1579,-21.03463 18.0617,-49.32762 38.3688,-88.21804 65.2616,-138.77778 12.494,-23.48922 38.0678,-62.59791 52.1394,-81.46349 2.4683,-1.91934 5.3847,-13.36216 6.2254,-19.34345 z"
         style="opacity:1;fill:url(#linearGradient6588);fill-opacity:1;fill-rule:nonzero;stroke:none;stroke-width:0.66399997;stroke-linecap:round;stroke-linejoin:miter;stroke-miterlimit:4;stroke-dasharray:none;stroke-dashoffset:0;stroke-opacity:1" />
      <path
         sodipodi:nodetypes="cssccscscc"
         inkscape:connector-curvature="0"
         id="path6513"
         d="m -1139.4521,285.65643 c -2.8369,48.15809 -24.7974,81.65309 -48.4873,114.14723 -13.0688,17.92575 -29.9227,32.79259 -46.9721,40.40611 -11.2169,5.009 -11.8447,15.79169 -14.1421,25.75889 l -6.0609,-1.01016 c 0.6354,-5.59489 1.8057,-12.91049 4.0082,-18.78675 13.8471,-36.94483 35.7829,-78.55181 53.6482,-115.68353 16.8663,-33.18288 36.0825,-67.67121 63.5619,-105.44094 1.2115,-1.66526 2.74,-3.58469 5.5558,-19.1929 5.3843,22.48649 -14.1198,24.41199 -11.1117,79.80205 z"
         style="opacity:1;fill:url(#linearGradient6598);fill-opacity:1;fill-rule:nonzero;stroke:none;stroke-width:0.66399997;stroke-linecap:round;stroke-linejoin:miter;stroke-miterlimit:4;stroke-dasharray:none;stroke-dashoffset:0;stroke-opacity:1" />
      <path
         sodipodi:nodetypes="cscccccccc"
         inkscape:connector-curvature="0"
         id="path6501"
         d="m -1266.605,466.34746 c 1.0455,-0.20911 2.1983,-8.82723 2.2728,-9.21764 1.2039,-6.30836 2.8434,-9.75838 8.8298,-10.72018 1.8523,7.68467 0.2365,14.03086 -0.6223,20.06409 -0.4206,-1.56038 -0.1956,-2.89992 1.2627,-4.16688 2.4431,0.44329 4.6182,1.29745 5.8084,3.66181 -0.5904,4.98832 -1.1794,9.36719 -1.7678,13.51079 l -18.4353,6.18718 c -1.7291,-3.55073 -3.2199,-7.022 -3.5355,-10.10152 z"
         style="opacity:1;fill:#9fc21f;fill-opacity:1;fill-rule:nonzero;stroke:none;stroke-width:0.66399997;stroke-linecap:round;stroke-linejoin:miter;stroke-miterlimit:4;stroke-dasharray:none;stroke-dashoffset:0;stroke-opacity:1" />
      <path
         sodipodi:nodetypes="cccccccccc"
         inkscape:connector-curvature="0"
         id="path6503"
         d="m -1250.7321,478.40802 -2.6353,86.09705 2.1428,13.57142 0,50.71429 -16.0714,2.14286 -1.7857,-65 -2.5,-4.64286 2.8571,-4.28571 -0.5321,-72.67773 z"
         style="opacity:1;fill:url(#linearGradient6614);fill-opacity:1;fill-rule:nonzero;stroke:none;stroke-width:0.66399997;stroke-linecap:round;stroke-linejoin:miter;stroke-miterlimit:4;stroke-dasharray:none;stroke-dashoffset:0;stroke-opacity:1" />
      <path
         sodipodi:nodetypes="csccssc"
         inkscape:connector-curvature="0"
         id="path6505"
         d="m -1176.7603,512.00507 c -31.2152,2.60551 -56.1135,26.11084 -66.0714,35.71428 -4.5248,4.36366 -7.02,15.82157 -8.3929,30.35714 l -5.1786,-11.42857 c 2.091,-9.54275 0.9718,-21.4612 5.9452,-31.46818 6.8232,-13.72892 21.1114,-19.5356 41.3763,-22.46039 15.9858,-2.3072 24.0715,-2.01251 32.3214,-0.71428 z"
         style="opacity:1;fill:url(#linearGradient6622);fill-opacity:1;fill-rule:nonzero;stroke:none;stroke-width:0.66399997;stroke-linecap:round;stroke-linejoin:miter;stroke-miterlimit:4;stroke-dasharray:none;stroke-dashoffset:0;stroke-opacity:1" />
    </g>
  </g>
</svg>
